<?xml version="1.0" standalone="no"?>
<!DOCTYPE svg PUBLIC "-//W3C//DTD SVG 20010904//EN"
 "http://www.w3.org/TR/2001/REC-SVG-20010904/DTD/svg10.dtd">
<svg version="1.0" xmlns="http://www.w3.org/2000/svg"
 width="310.000000pt" height="163.000000pt" viewBox="0 0 310.000000 163.000000"
 preserveAspectRatio="xMidYMid meet">
<metadata>
Created by potrace 1.15, written by Peter Selinger 2001-2017
</metadata>
<g transform="translate(0.000000,163.000000) scale(0.100000,-0.100000)"
fill="#000000" stroke="none">
<path d="M744 1101 c-17 -10 -40 -31 -52 -45 -28 -36 -77 -157 -98 -241 -9
-39 -20 -74 -24 -78 -4 -5 -20 7 -35 27 -29 38 -65 48 -65 19 1 -27 109 -138
122 -125 6 6 23 60 39 121 33 126 76 229 113 266 35 35 87 34 115 -1 12 -15
21 -33 21 -40 0 -7 9 -16 20 -19 34 -11 53 -50 46 -95 -5 -33 -3 -41 14 -50
48 -26 27 -110 -27 -110 -15 0 -37 10 -50 21 -32 31 -53 11 -53 -47 0 -40 -2
-44 -24 -44 -22 0 -25 5 -28 43 -3 41 -4 42 -44 45 -48 4 -97 -13 -91 -31 2
-7 21 -12 45 -11 41 1 41 1 44 -40 l3 -41 73 -3 72 -3 0 35 0 34 47 -1 c40 0
50 4 75 32 34 38 39 105 10 137 -11 11 -18 34 -18 56 0 45 -18 82 -49 98 -12
6 -29 26 -38 44 -16 35 -68 66 -109 66 -12 0 -37 -9 -54 -19z"/>
<path d="M1335 1000 c-27 -30 -25 -88 4 -111 49 -40 115 -9 115 54 0 47 -27
77 -69 77 -19 0 -39 -8 -50 -20z"/>
<path d="M2060 724 l0 -77 42 6 c108 14 100 147 -8 147 l-34 0 0 -76z"/>
<path d="M1362 564 c-29 -20 -31 -85 -2 -114 29 -29 74 -26 99 6 58 73 -21
161 -97 108z"/>
</g>
</svg>
